<?xml version="1.0" encoding="UTF-8" standalone="no"?>
<svg
   xmlns:dc="http://purl.org/dc/elements/1.1/"
   xmlns:cc="http://creativecommons.org/ns#"
   xmlns:rdf="http://www.w3.org/1999/02/22-rdf-syntax-ns#"
   xmlns:svg="http://www.w3.org/2000/svg"
   xmlns="http://www.w3.org/2000/svg"
   version="1.1"
   id="svg2"
   viewBox="0 0 275 275.00001"
   height="275"
   width="275">
  <defs
     id="defs4" />
  <metadata
     id="metadata7">
    <rdf:RDF>
      <cc:Work
         rdf:about="">
        <dc:format>image/svg+xml</dc:format>
        <dc:type
           rdf:resource="http://purl.org/dc/dcmitype/StillImage" />
        <dc:title></dc:title>
      </cc:Work>
    </rdf:RDF>
  </metadata>
  <g
     transform="translate(-649.10711,-691.42688)"
     id="layer1">
    <path
       style="fill:#000000;fill-opacity:1"
       d="m 774.82609,942.16001 c -29.13763,-6.1176 -53.41808,-24.1672 -65.53858,-48.72021 -10.63626,-21.54631 -13.12514,-47.72719 -4.21202,-44.3069 2.27243,0.87201 3.36623,4.42321 3.38954,11.00467 0.0254,7.16829 3.3843,18.99015 8.39749,29.55543 6.39244,13.47201 21.90968,28.70041 36.61958,35.93791 13.92161,6.8496 23.71423,9.0251 40.625,9.0251 15.5286,0 25.03361,-1.8667 38.68715,-7.598 9.83999,-4.1304 13.18785,-4.1015 13.18785,0.1142 0,3.4924 -5.70845,6.7629 -20,11.4583 -10.48544,3.4448 -13.84964,3.9476 -28.75,4.2961 -9.28125,0.2171 -19.36396,-0.1279 -22.40601,-0.7666 z m 14.28101,-18.2401 c -17.94237,-2.3542 -26.70674,-5.4261 -39.69898,-13.91424 -8.86527,-5.79189 -11.41684,-8.82912 -10.16281,-12.09712 1.21373,-3.1629 5.04198,-2.29044 11.41348,2.60115 11.86546,9.10946 30.53876,15.34611 45.94831,15.34611 17.51704,0 37.48302,-7.54467 49.20457,-18.5932 7.27078,-6.8533 7.68534,-7.0547 9.92043,-4.81961 2.8271,2.8271 1.4922,5.75628 -5.56106,12.20256 -8.38922,7.66726 -21.21927,14.41675 -32.00982,16.83945 -8.72532,1.959 -23.34409,3.1841 -29.05412,2.4349 z m -11.0824,-22.45999 c -22.29391,-5.39618 -38.45997,-22.44797 -41.96755,-44.26692 -1.65741,-10.30994 -1.66701,-42.90531 -0.016,-54.375 2.61737,-18.18335 14.13303,-34.49308 29.80137,-42.20796 7.67918,-3.78114 9.05945,-4.04204 21.38371,-4.04204 12.32303,0 13.70566,0.26128 21.38958,4.04204 15.6724,7.71135 27.18914,24.01938 29.80726,42.20796 1.36739,9.4994 1.5032,36.46054 0.21402,42.48474 -0.83424,3.89828 -4.38194,5.6633 -6.70798,3.33726 -0.79117,-0.79117 -1.20352,-8.66621 -1.06972,-20.42973 0.24362,-21.4183 -0.95463,-29.90232 -5.55645,-39.34185 -10.21299,-20.94947 -34.87129,-30.12223 -55.16569,-20.52132 -13.57266,6.42097 -22.5876,18.59921 -25.51706,34.4709 -0.83294,4.51279 -1.19339,17.20845 -0.90499,31.875 0.51921,26.40447 1.30339,29.8795 9.38333,41.58129 4.47572,6.48197 16.0509,13.89501 25.82978,16.54202 11.27452,3.05188 31.31029,2.20785 40.07923,-1.68836 13.83315,-6.14634 22.56326,-17.31188 26.95165,-34.47034 2.07883,-8.12816 2.51967,-13.84477 2.50445,-32.47706 -0.0213,-25.94861 -1.47252,-34.29821 -8.14617,-46.86625 -4.84742,-9.12881 -5.10926,-10.42291 -2.54026,-12.55499 3.11283,-2.58341 6.60634,0.65434 11.35195,10.52088 6.89059,14.3261 8.49301,25.5363 7.77795,54.41281 -0.45454,18.3558 -1.14071,26.07273 -2.7787,31.25 -6.85566,21.66911 -20.49691,35.48702 -40.065,40.58386 -9.02976,2.35195 -26.17684,2.3201 -36.0387,-0.067 z m -48.96,-11.36289 c -3.2558,-3.25579 -8.08545,-14.84863 -10.06273,-24.15403 -2.53135,-11.91291 -2.40195,-59.50815 0.19639,-72.2402 3.92594,-19.23733 16.30571,-37.82758 31.82017,-47.78318 21.67808,-13.91079 50.78632,-13.88688 72.51997,0.0596 7.61943,4.88936 9.26568,7.47688 6.8259,10.72863 -1.72451,2.29842 -1.89495,2.2853 -6.51407,-0.50148 -10.32764,-6.2308 -20.55902,-10.47182 -28.39598,-11.77045 -23.44504,-3.88496 -49.2096,9.82406 -61.14309,32.53353 -7.15957,13.62469 -8.28962,20.72812 -8.31069,52.24046 -0.0206,30.87854 0.80375,37.26874 6.36431,49.3325 2.12056,4.60064 3.65486,9.40703 3.40955,10.68085 -0.60487,3.14078 -4.00053,3.58299 -6.70973,0.87379 z m 53.57263,-7.20339 c -7.40994,-2.31695 -12.9355,-6.01239 -19.52758,-13.05985 -8.76316,-9.36854 -9.9547,-14.97829 -9.40723,-44.28931 0.50642,-27.11181 1.60545,-31.34402 10.43159,-40.17016 6.6709,-6.67091 13.33569,-9.37642 23.09799,-9.37642 9.7623,0 16.42709,2.70551 23.09799,9.37642 6.33538,6.33539 9.46969,13.91447 10.30125,24.90952 0.79536,10.51663 -0.025,15.05622 -2.92189,16.16785 -3.82471,1.46769 -5.15991,-1.51519 -5.69584,-12.72469 -0.40722,-8.51745 -1.17452,-12.07306 -3.49712,-16.20558 -3.9782,-7.07826 -11.00593,-11.79853 -18.66127,-12.53412 -11.46178,-1.10132 -19.82992,3.64674 -24.64252,13.98212 -2.76714,5.9426 -2.95696,7.80993 -2.96839,29.20123 -0.0131,24.47301 0.62935,27.83601 6.88401,36.03629 1.68788,2.21292 6.54158,5.75882 10.78598,7.87977 15.19836,7.59472 32.80177,4.35544 43.06687,-7.92491 5.18996,-6.20884 9.56087,-7.29466 10.24093,-2.54406 0.89429,6.24701 -11.49806,17.89445 -22.52204,21.16821 -7.73133,2.29596 -20.90266,2.3465 -28.06274,0.10775 z m 76.7394,0.17625 c -0.34257,-0.89271 0.85488,-5.81459 2.66101,-10.9375 3.19794,-9.07068 3.29477,-10.2369 3.70067,-44.57113 0.47493,-40.17242 -0.0859,-44.17087 -8.57462,-61.13676 -6.37238,-12.73602 -14.87671,-22.34178 -26.89907,-30.38282 -9.78624,-6.54544 -25.9495,-12.59868 -33.64077,-12.59868 -6.85322,0 -10.8791,-2.05411 -10.41603,-5.31452 0.33447,-2.35481 1.29253,-2.87436 5.90923,-3.2045 8.25236,-0.59013 22.75581,3.10557 33.59855,8.56142 23.22695,11.68735 40.01809,32.67445 46.53814,58.16761 2.15629,8.43096 2.47826,13.87575 2.47826,41.90823 0,33.91215 -1.15411,44.2778 -6.19997,55.6848 -1.89804,4.29082 -3.05928,5.44696 -5.47101,5.44696 -1.68385,0 -3.34183,-0.7304 -3.68439,-1.62311 z m -190.60755,-5.7846 c -2.93585,-0.49067 -6.87335,-2.02837 -8.75,-3.41712 -6.9088,-5.11265 -7.16208,-6.70481 -7.16208,-45.02157 0,-33.85343 0.10217,-35.35845 2.63066,-38.75 5.00771,-6.71701 9.44204,-8.2766 23.90791,-8.40861 11.23798,-0.1025 13.35178,0.19783 14.5485,2.06751 1.02036,1.59415 1.02761,2.78085 0.0267,4.375 -1.10465,1.75941 -3.75522,2.30981 -13.54405,2.8125 -11.42641,0.58679 -12.3548,0.83946 -15.18268,4.1322 -3.00812,3.50262 -3.01206,3.5479 -3.01206,34.6178 0,31.0699 0.004,31.11517 3.01206,34.6178 2.82788,3.29274 3.75626,3.54541 15.18268,4.1322 9.78883,0.50269 12.4394,1.05309 13.54405,2.8125 0.99807,1.58968 0.99765,2.78532 -10e-4,4.375 -1.08835,1.73149 -3.30195,2.22496 -10.61861,2.3672 -5.08399,0.0989 -11.64569,-0.22176 -14.58154,-0.71241 z m 215.02542,-0.21158 c -1.97586,-2.06212 -2.00328,-5.18994 -0.0625,-7.13071 0.89555,-0.89555 5.21581,-1.5 10.72115,-1.5 8.52514,0 9.49695,-0.2758 12.875,-3.65385 l 3.65385,-3.65384 0,-31.27645 c 0,-31.24762 -0.003,-31.27969 -3.01283,-34.78366 -2.73772,-3.18695 -3.95296,-3.56428 -13.3085,-4.1322 -7.99261,-0.48519 -10.6027,-1.11433 -11.66827,-2.8125 -1.0004,-1.59433 -0.9917,-2.78068 0.0321,-4.375 1.18312,-1.8424 3.19582,-2.16076 12.75822,-2.01804 12.50536,0.18665 17.1784,1.9669 21.94363,8.3597 2.53189,3.39666 2.63067,4.88333 2.63067,39.59584 0,34.71251 -0.0987,36.19917 -2.63067,39.59584 -4.40565,5.91038 -9.13158,7.83767 -21.23412,8.65947 -8.33489,0.56596 -11.52816,0.34603 -12.69771,-0.8746 z m -97.1875,-13.20775 c -5.49029,-2.8944 -9.3078,-6.69252 -11.99665,-11.93566 -2.03776,-3.97358 -2.37835,-7.42825 -2.37835,-24.12457 0,-21.60882 0.97532,-25.36369 7.45909,-28.71657 7.52346,-3.89054 17.10586,-1.28054 20.68097,5.63298 2.90629,5.62012 2.17124,35.98835 -0.91816,37.93381 -4.18891,2.63787 -5.3206,-0.83724 -5.76714,-17.70941 -0.23114,-8.7332 -1.00313,-16.58167 -1.71556,-17.44104 -1.64807,-1.98804 -7.52496,-2.02674 -9.4892,-0.0625 -1.03695,1.03695 -1.5,7.44935 -1.5,20.77206 l 0,19.27205 4.85294,4.85295 c 4.08455,4.08455 5.67774,4.85294 10.06207,4.85294 2.86503,0 6.79898,-0.82214 8.74213,-1.82698 3.66012,-1.89272 7.59286,-9.57048 7.59286,-14.82332 0,-3.13749 2.12399,-5.8497 4.58102,-5.8497 5.84635,0 4.17058,15.81384 -2.47823,23.38642 -2.1663,2.46728 -5.75758,5.24593 -7.98062,6.17478 -5.38413,2.24964 -15.10605,2.0585 -19.74717,-0.38824 z m -84.763,-24.36525 c -1.8658,-1.04416 -2.112,-3.91996 -2.112,-24.66987 0,-26.52844 1.72488,-36.29258 9.04076,-51.1776 10.96733,-22.31434 34.44834,-41.61571 56.68006,-46.59095 6.45234,-1.44397 7.24289,-1.38573 8.72629,0.64294 2.72009,3.71995 0.84044,5.35347 -10.07673,8.75727 -20.2054,6.29972 -37.17622,20.82804 -46.84802,40.1055 -7.5117,14.97202 -8.7697,21.58449 -8.78943,46.20012 -0.009,11.71493 -0.34607,22.52659 -0.74817,24.02592 -0.88608,3.30382 -3.03552,4.29447 -5.87276,2.70667 z"
       id="path3403" />
  </g>
</svg>
